<mxfile host="65bd71144e">
    <diagram id="lzdwVZH4Tr6MhS5IkT3G" name="Page-1">
        <mxGraphModel dx="1094" dy="723" grid="1" gridSize="10" guides="1" tooltips="1" connect="1" arrows="1" fold="1" page="1" pageScale="1" pageWidth="827" pageHeight="1169" math="0" shadow="0">
            <root>
                <mxCell id="0"/>
                <mxCell id="1" parent="0"/>
                <mxCell id="12" value="resources" style="image;html=1;image=img/lib/clip_art/general/Full_Folder_128x128.png" vertex="1" parent="1">
                    <mxGeometry x="50" y="80" width="80" height="80" as="geometry"/>
                </mxCell>
                <mxCell id="14" value="html" style="aspect=fixed;html=1;points=[];align=center;image;fontSize=12;image=img/lib/azure2/general/Folder_Blank.svg;" vertex="1" parent="1">
                    <mxGeometry x="55.5" y="200" width="61.61" height="50" as="geometry"/>
                </mxCell>
                <mxCell id="15" value="css" style="aspect=fixed;html=1;points=[];align=center;image;fontSize=12;image=img/lib/azure2/general/Folder_Blank.svg;" vertex="1" parent="1">
                    <mxGeometry x="50" y="280" width="61.61" height="50" as="geometry"/>
                </mxCell>
                <mxCell id="16" value="js" style="aspect=fixed;html=1;points=[];align=center;image;fontSize=12;image=img/lib/azure2/general/Folder_Blank.svg;" vertex="1" parent="1">
                    <mxGeometry x="150" y="200" width="61.61" height="50" as="geometry"/>
                </mxCell>
            </root>
        </mxGraphModel>
    </diagram>
</mxfile>